<svg id="Layer_1" data-name="Layer 1" xmlns="http://www.w3.org/2000/svg" viewBox="0 0 456.4 46.54"><defs><style>.cls-1{fill:#ed1c24;}</style></defs><polygon class="cls-1" points="164.55 0.05 139.7 8.75 132.47 0.07 107.81 0.04 120.67 15.42 31.95 46.54 54.6 46.54 125.81 21.57 132.53 29.6 157.05 29.61 144.82 14.91 187.45 0 164.55 0.05"/><path class="cls-1" d="M928.24,454.67l-20.17,7.23h57.68l-10,4h-50.2L888,484.27h23l15.15-15.84,13,15.84h24.43l-9.22-11.17h10.76l18.15-7.22h0l9.88-10.32c.66-.74-.12-.86-.56-.89Z" transform="translate(-732.17 -454.64)"/><path class="cls-1" d="M784.91,454.67l-18.09,7.2h0L756.12,473h21.27l28.19,0-10,4H749.62l-17.45,7.18,70.74,0,18-7.2h0l9.84-10.29c.63-.71-.06-.85-.49-.88h-46l9.84-3.95h33.25l18.28-7.21Z" transform="translate(-732.17 -454.64)"/><path class="cls-1" d="M1167.82,477.1l20.65-21.68a.36.36,0,0,0-.26-.61l-57.29,0-18.68,7.17h0L1091,484.27h58.23l18.63-7.18h0ZM1135,462h24.37L1145,477.08l-24.38,0Z" transform="translate(-732.17 -454.64)"/><path class="cls-1" d="M1096.74,462.08l18.41-7.32-61.33-.05-18.68,7.18h0l-21.26,22.32h58.41l18.63-7.17h0L1101,466.4a.39.39,0,0,0-.28-.65l-46.49,0,3.65-3.81ZM1072,472.93l-3.9,4.09h-24.56l-.13,0,4-4.12Z" transform="translate(-732.17 -454.64)"/><polygon class="cls-1" points="281.47 0.03 263.65 7.23 273.09 7.23 251.75 29.59 274.51 29.6 302.74 0.05 281.47 0.03"/></svg>